<svg xmlns="http://www.w3.org/2000/svg" width="382.3" height="155.7" viewBox="0 0 382.3 155.7">

  
  <path d="M84.69400000000002 111.08Q72.33400000000002 111.08 66.84400000000002 106.03999999999999Q61.35400000000001 101.0 60.87400000000002 89.24000000000001Q60.814000000000014 86.9 60.814000000000014 84.38Q60.814000000000014 81.86 60.93400000000001 79.34Q61.054000000000016 76.82 61.29400000000002 74.36H75.81400000000002Q75.57400000000001 79.04 75.54400000000001 83.51Q75.51400000000001 87.98 75.81400000000002 91.94Q76.11400000000002 95.24 78.27400000000002 96.83Q80.43400000000001 98.42 84.63400000000001 98.42Q88.65400000000002 98.42 90.72400000000002 96.83Q92.79400000000001 95.24 93.15400000000002 91.94Q93.394 89.72 93.45400000000001 87.41Q93.51400000000001 85.1 93.424 82.78999999999999Q93.33400000000002 80.48 93.15400000000002 78.26Q92.91400000000002 75.08 91.08400000000002 72.89Q89.25400000000002 70.7 86.01400000000001 69.92L76.35400000000001 67.7Q70.47400000000002 66.32 67.08400000000002 63.5Q63.69400000000002 60.68 62.19400000000002 56.3Q60.69400000000002 51.92 60.51400000000002 45.92Q60.454000000000015 42.92 60.454000000000015 40.190000000000005Q60.454000000000015 37.46000000000001 60.51400000000002 34.64Q60.814000000000014 26.840000000000003 63.36400000000002 22.07Q65.91400000000002 17.299999999999997 71.10400000000001 15.11Q76.29400000000001 12.920000000000002 84.63400000000001 12.920000000000002Q96.81400000000002 12.920000000000002 102.27400000000002 17.93Q107.73400000000001 22.939999999999998 108.15400000000002 34.64Q108.27400000000002 37.58 108.21400000000003 41.54Q108.15400000000002 45.5 107.97400000000002 49.160000000000004H93.15400000000002Q93.33400000000002 44.66 93.394 40.4Q93.45400000000001 36.14 93.27400000000002 31.939999999999998Q93.15400000000002 28.700000000000003 90.99400000000003 27.14Q88.83400000000002 25.58 84.63400000000001 25.58Q80.55400000000002 25.58 78.424 27.14Q76.29400000000001 28.700000000000003 75.93400000000001 31.939999999999998Q75.63400000000001 35.480000000000004 75.63400000000001 38.93Q75.63400000000001 42.379999999999995 75.93400000000001 45.92Q76.17400000000002 49.160000000000004 77.55400000000002 51.32000000000001Q78.93400000000001 53.480000000000004 82.05400000000002 54.14L90.69400000000002 56.0Q97.05400000000002 57.440000000000005 100.924 60.35000000000001Q104.79400000000001 63.260000000000005 106.59400000000001 67.73Q108.394 72.2 108.63400000000001 78.26Q108.69400000000002 80.0 108.69400000000002 81.89Q108.69400000000002 83.78 108.66400000000002 85.64Q108.63400000000001 87.5 108.51400000000001 89.24000000000001Q108.03400000000002 101.0 102.51400000000001 106.03999999999999Q96.99400000000001 111.08 84.69400000000002 111.08Z" fill="#0a2b5a"/>
  <path d="M115.35400000000001 110.0 127.774 14.0H154.954L167.374 110.0H151.534L149.37400000000002 87.8H133.354L131.19400000000002 110.0ZM134.794 74.18H147.994L145.894 53.18L144.094 27.620000000000005H138.63400000000001L136.834 53.24Z" fill="#0a2b5a"/>
  <path d="M176.074 110.0V14.0H199.294Q211.594 14.0 217.054 19.130000000000003Q222.514 24.260000000000005 222.754 36.019999999999996Q222.934 45.260000000000005 222.994 53.63Q223.054 62.0 222.994 70.31Q222.934 78.62 222.754 87.92Q222.514 99.68 217.084 104.84Q211.654 110.0 199.474 110.0ZM191.494 96.38H199.474Q203.434 96.38 205.35399999999998 94.69999999999999Q207.274 93.02 207.334 89.66Q207.514 82.4 207.604 75.53Q207.69400000000002 68.66 207.69400000000002 61.94Q207.69400000000002 55.22 207.604 48.35Q207.514 41.480000000000004 207.334 34.28Q207.274 30.92 205.324 29.270000000000003Q203.374 27.620000000000005 199.294 27.620000000000005H191.494Z" fill="#0a2b5a"/>

  
  <line x1="241.96" y1="19.00" x2="241.96" y2="114.00" stroke="#0078d4" stroke-width="1.5" stroke-linecap="round"/>

  
  <path d="M259.158 76.574V47.425999999999995H263.106V76.574ZM261.846 76.574V72.962H278.562V76.574ZM261.846 63.385999999999996V59.94199999999999H277.176V63.385999999999996ZM261.846 51.038V47.425999999999995H278.352V51.038Z" fill="#0052a5"/>
  <path d="M296.37 76.574 290.15400000000005 67.838 289.44000000000005 67.166 281.586 56.623999999999995H286.16400000000004L291.834 64.39399999999999L292.548 64.982L300.94800000000004 76.574ZM281.208 76.574 289.44000000000005 65.48599999999999 291.58200000000005 68.258 285.66 76.574ZM292.84200000000004 67.124 290.658 64.43599999999999 296.16 56.623999999999995H300.57000000000005Z" fill="#0052a5"/>
  <path d="M314.934 76.994Q312.66600000000005 76.994 310.83900000000006 76.049Q309.01200000000006 75.104 307.9200000000001 73.424Q306.82800000000003 71.744 306.70200000000006 69.602V63.596Q306.82800000000003 61.412 307.94100000000003 59.753Q309.05400000000003 58.093999999999994 310.88100000000003 57.148999999999994Q312.708 56.20399999999999 314.934 56.20399999999999Q317.66400000000004 56.20399999999999 319.869 57.589999999999996Q322.074 58.976 323.33400000000006 61.328Q324.59400000000005 63.68 324.59400000000005 66.62Q324.59400000000005 69.56 323.33400000000006 71.912Q322.074 74.264 319.869 75.62899999999999Q317.66400000000004 76.994 314.934 76.994ZM304.434 84.932V56.623999999999995H308.21400000000006V61.873999999999995L307.50000000000006 66.704L308.21400000000006 71.576V84.932ZM314.30400000000003 73.42399999999999Q316.194 73.42399999999999 317.622 72.542Q319.05 71.66 319.89 70.127Q320.73 68.594 320.73 66.578Q320.73 64.604 319.89 63.05Q319.05 61.495999999999995 317.622 60.635Q316.194 59.774 314.34600000000006 59.774Q312.456 59.774 311.028 60.635Q309.6 61.495999999999995 308.802 63.05Q308.004 64.604 308.004 66.62Q308.004 68.594 308.78100000000006 70.127Q309.55800000000005 71.66 311.00700000000006 72.542Q312.456 73.42399999999999 314.30400000000003 73.42399999999999Z" fill="#0052a5"/>

  
  <path d="M17.993750000000006 130.31Q19.081250000000004 130.31 19.868750000000006 130.75375Q20.656250000000007 131.1975 21.181250000000006 132.06L20.343750000000007 132.71Q19.881250000000005 131.91 19.300000000000004 131.57875Q18.718750000000007 131.2475 17.893750000000004 131.2475Q17.231250000000006 131.2475 16.800000000000004 131.435Q16.368750000000006 131.6225 16.168750000000006 131.92875Q15.968750000000005 132.235 15.968750000000005 132.6225Q15.968750000000005 133.06 16.243750000000006 133.39125Q16.518750000000004 133.7225 17.343750000000007 133.91L19.131250000000005 134.31Q20.318750000000005 134.5725 20.787500000000005 135.10375Q21.256250000000005 135.635 21.256250000000005 136.4225Q21.256250000000005 137.1225 20.862500000000004 137.66625Q20.468750000000007 138.21 19.75625000000001 138.51Q19.043750000000006 138.81 18.081250000000004 138.81Q17.181250000000006 138.81 16.500000000000007 138.56625Q15.818750000000005 138.3225 15.331250000000004 137.91Q14.843750000000005 137.4975 14.531250000000005 136.985L15.406250000000005 136.2725Q15.643750000000006 136.7475 16.018750000000004 137.11Q16.393750000000004 137.4725 16.925000000000004 137.6725Q17.456250000000004 137.8725 18.143750000000004 137.8725Q18.781250000000007 137.8725 19.250000000000007 137.71625Q19.718750000000007 137.56 19.968750000000007 137.25375Q20.218750000000007 136.9475 20.218750000000007 136.51Q20.218750000000007 136.11 19.956250000000004 135.79125Q19.693750000000005 135.4725 18.968750000000007 135.31L17.031250000000007 134.8725Q16.268750000000004 134.6975 15.800000000000004 134.39125Q15.331250000000006 134.085 15.125000000000007 133.66625Q14.918750000000006 133.2475 14.918750000000006 132.76Q14.918750000000006 132.0975 15.287500000000005 131.54125Q15.656250000000005 130.985 16.350000000000005 130.6475Q17.043750000000006 130.31 17.993750000000006 130.31Z" fill="#6e87aa"/>
  <path d="M24.35625000000001 130.435V138.685H23.35625000000001V130.435Z" fill="#6e87aa"/>
  <path d="M29.706250000000008 130.31Q30.79375000000001 130.31 31.581250000000008 130.75375Q32.368750000000006 131.1975 32.89375000000001 132.06L32.056250000000006 132.71Q31.593750000000007 131.91 31.01250000000001 131.57875Q30.43125000000001 131.2475 29.60625000000001 131.2475Q28.94375000000001 131.2475 28.51250000000001 131.435Q28.081250000000008 131.6225 27.88125000000001 131.92875Q27.68125000000001 132.235 27.68125000000001 132.6225Q27.68125000000001 133.06 27.95625000000001 133.39125Q28.23125000000001 133.7225 29.05625000000001 133.91L30.843750000000007 134.31Q32.03125000000001 134.5725 32.50000000000001 135.10375Q32.96875000000001 135.635 32.96875000000001 136.4225Q32.96875000000001 137.1225 32.575 137.66625Q32.181250000000006 138.21 31.468750000000007 138.51Q30.75625000000001 138.81 29.79375000000001 138.81Q28.893750000000008 138.81 28.212500000000006 138.56625Q27.531250000000007 138.3225 27.04375000000001 137.91Q26.55625000000001 137.4975 26.24375000000001 136.985L27.11875000000001 136.2725Q27.356250000000006 136.7475 27.73125000000001 137.11Q28.10625000000001 137.4725 28.63750000000001 137.6725Q29.16875000000001 137.8725 29.85625000000001 137.8725Q30.49375000000001 137.8725 30.96250000000001 137.71625Q31.43125000000001 137.56 31.68125000000001 137.25375Q31.93125000000001 136.9475 31.93125000000001 136.51Q31.93125000000001 136.11 31.66875000000001 135.79125Q31.406250000000007 135.4725 30.68125000000001 135.31L28.74375000000001 134.8725Q27.981250000000006 134.6975 27.512500000000006 134.39125Q27.043750000000006 134.085 26.837500000000006 133.66625Q26.63125000000001 133.2475 26.63125000000001 132.76Q26.63125000000001 132.0975 27.000000000000007 131.54125Q27.36875000000001 130.985 28.062500000000007 130.6475Q28.75625000000001 130.31 29.706250000000008 130.31Z" fill="#6e87aa"/>
  <path d="M40.868750000000006 130.435V131.3725H37.993750000000006V138.685H36.993750000000006V131.3725H34.118750000000006V130.435Z" fill="#6e87aa"/>
  <path d="M42.61875000000001 138.685V130.435H48.406250000000014V131.3725H43.61875000000001V134.035H47.343750000000014V134.9725H43.61875000000001V137.7475H48.593750000000014V138.685Z" fill="#6e87aa"/>
  <path d="M58.568750000000016 130.435V138.685H57.61875000000001V133.4975L57.73125000000002 131.3225H57.718750000000014L55.006250000000016 138.685H54.156250000000014L51.443750000000016 131.3225H51.43125000000001L51.54375000000001 133.4975V138.685H50.593750000000014V130.435H52.131250000000016L53.943750000000016 135.4475L54.568750000000016 137.51H54.593750000000014L55.23125000000002 135.46L57.031250000000014 130.435Z" fill="#6e87aa"/>
  <path d="M67.84375000000001 138.685H66.78125000000001L65.90625000000001 136.3975H62.16875000000002L61.29375000000002 138.685H60.24375000000002L63.45625000000002 130.435H64.64375000000001ZM62.531250000000014 135.46H65.54375000000002L64.03125000000001 131.3975Z" fill="#6e87aa"/>
  <path d="M76.44375000000002 130.435Q78.38125000000002 130.435 79.48750000000001 131.50375Q80.59375000000001 132.5725 80.59375000000001 134.56Q80.59375000000001 136.5475 79.48750000000001 137.61625Q78.38125000000002 138.685 76.44375000000002 138.685H73.78125000000001V130.435ZM76.54375000000002 137.7475Q77.95625000000003 137.7475 78.75000000000003 136.90375Q79.54375000000002 136.06 79.54375000000002 134.56Q79.54375000000002 133.06 78.75000000000003 132.21625Q77.95625000000003 131.3725 76.54375000000002 131.3725H74.78125000000001V137.7475Z" fill="#6e87aa"/>
  <path d="M82.79375000000002 138.685V130.435H88.58125000000003V131.3725H83.79375000000002V134.035H87.51875000000003V134.9725H83.79375000000002V137.7475H88.76875000000003V138.685Z" fill="#6e87aa"/>
  <path d="M101.60625000000002 138.685H100.54375000000002L99.66875000000002 136.3975H95.93125000000002L95.05625000000002 138.685H94.00625000000002L97.21875000000001 130.435H98.40625000000001ZM96.29375000000002 135.46H99.30625000000002L97.79375000000002 131.3975Z" fill="#6e87aa"/>
  <path d="M106.19375000000002 130.435Q107.03125000000001 130.435 107.65000000000002 130.74125Q108.26875000000003 131.0475 108.61875000000002 131.61Q108.96875000000001 132.1725 108.96875000000001 132.9475Q108.96875000000001 133.7225 108.61875000000002 134.285Q108.26875000000003 134.8475 107.65000000000002 135.15375Q107.03125000000001 135.46 106.19375000000002 135.46H104.28125000000001V138.685H103.28125000000001V130.435ZM106.04375000000002 134.5225Q107.01875000000003 134.5225 107.46875000000003 134.11625Q107.91875000000002 133.71 107.91875000000002 132.9475Q107.91875000000002 132.1725 107.46875000000003 131.7725Q107.01875000000003 131.3725 106.04375000000002 131.3725H104.28125000000001V134.5225Z" fill="#6e87aa"/>
  <path d="M114.23125000000002 130.31Q115.40625000000001 130.31 116.26250000000002 130.82875Q117.11875000000002 131.3475 117.58750000000002 132.2975Q118.05625000000002 133.2475 118.05625000000002 134.56Q118.05625000000002 135.8725 117.58750000000002 136.8225Q117.11875000000002 137.7725 116.26250000000002 138.29125Q115.40625000000001 138.81 114.23125000000002 138.81Q113.05625000000002 138.81 112.20000000000002 138.29125Q111.34375000000001 137.7725 110.87500000000001 136.8225Q110.40625000000001 135.8725 110.40625000000001 134.56Q110.40625000000001 133.2475 110.87500000000001 132.2975Q111.34375000000001 131.3475 112.20000000000002 130.82875Q113.05625000000002 130.31 114.23125000000002 130.31ZM114.23125000000002 131.2475Q113.38125000000002 131.2475 112.75625000000002 131.64125Q112.13125000000002 132.035 111.79375000000002 132.77875Q111.45625000000003 133.5225 111.45625000000003 134.56Q111.45625000000003 135.5975 111.79375000000002 136.34125Q112.13125000000002 137.085 112.75625000000002 137.47875Q113.38125000000002 137.8725 114.23125000000002 137.8725Q115.09375000000001 137.8725 115.71250000000002 137.47875Q116.33125000000003 137.085 116.66875000000002 136.34125Q117.00625000000002 135.5975 117.00625000000002 134.56Q117.00625000000002 133.5225 116.66875000000002 132.77875Q116.33125000000003 132.035 115.71250000000002 131.64125Q115.09375000000001 131.2475 114.23125000000002 131.2475Z" fill="#6e87aa"/>
  <path d="M121.25625000000001 130.435V138.685H120.25625000000001V130.435Z" fill="#6e87aa"/>
  <path d="M127.28125000000001 130.31Q128.45625 130.31 129.3125 130.82875Q130.16875000000002 131.3475 130.63750000000002 132.2975Q131.10625000000002 133.2475 131.10625000000002 134.56Q131.10625000000002 135.8725 130.63750000000002 136.8225Q130.16875000000002 137.7725 129.3125 138.29125Q128.45625 138.81 127.28125000000001 138.81Q126.10625000000002 138.81 125.25000000000001 138.29125Q124.39375000000001 137.7725 123.92500000000001 136.8225Q123.45625000000001 135.8725 123.45625000000001 134.56Q123.45625000000001 133.2475 123.92500000000001 132.2975Q124.39375000000001 131.3475 125.25000000000001 130.82875Q126.10625000000002 130.31 127.28125000000001 130.31ZM127.28125000000001 131.2475Q126.43125000000002 131.2475 125.80625000000002 131.64125Q125.18125000000002 132.035 124.84375000000003 132.77875Q124.50625000000002 133.5225 124.50625000000002 134.56Q124.50625000000002 135.5975 124.84375000000003 136.34125Q125.18125000000002 137.085 125.80625000000002 137.47875Q126.43125000000002 137.8725 127.28125000000001 137.8725Q128.14375 137.8725 128.76250000000002 137.47875Q129.38125000000002 137.085 129.71875 136.34125Q130.05625 135.5975 130.05625 134.56Q130.05625 133.5225 129.71875 132.77875Q129.38125000000002 132.035 128.76250000000002 131.64125Q128.14375 131.2475 127.28125000000001 131.2475Z" fill="#6e87aa"/>
  <path d="M144.14375 138.685H143.08125L142.20625 136.3975H138.46875L137.59375 138.685H136.54375L139.75625 130.435H140.94375ZM138.83125 135.46H141.84375L140.33125 131.3975Z" fill="#6e87aa"/>
  <path d="M149.14375 130.31Q150.31875 130.31 151.175 130.82875Q152.03125 131.3475 152.5 132.2975Q152.96875 133.2475 152.96875 134.56Q152.96875 135.8725 152.5 136.8225Q152.03125 137.7725 151.175 138.29125Q150.31875 138.81 149.14375 138.81Q147.96875 138.81 147.1125 138.29125Q146.25625 137.7725 145.7875 136.8225Q145.31875 135.8725 145.31875 134.56Q145.31875 133.2475 145.7875 132.2975Q146.25625 131.3475 147.1125 130.82875Q147.96875 130.31 149.14375 130.31ZM149.14375 131.2475Q148.29375 131.2475 147.66875 131.64125Q147.04375 132.035 146.70625 132.77875Q146.36875 133.5225 146.36875 134.56Q146.36875 135.5975 146.70625 136.34125Q147.04375 137.085 147.66875 137.47875Q148.29375 137.8725 149.14375 137.8725Q150.00625 137.8725 150.625 137.47875Q151.24375 137.085 151.58125 136.34125Q151.91875 135.5975 151.91875 134.56Q151.91875 133.5225 151.58125 132.77875Q151.24375 132.035 150.625 131.64125Q150.00625 131.2475 149.14375 131.2475Z" fill="#6e87aa"/>
  <path d="M162.09374999999997 130.435Q164.03124999999997 130.435 165.1375 131.50375Q166.24374999999998 132.5725 166.24374999999998 134.56Q166.24374999999998 136.5475 165.1375 137.61625Q164.03124999999997 138.685 162.09374999999997 138.685H159.43124999999998V130.435ZM162.19375 137.7475Q163.60625 137.7475 164.39999999999998 136.90375Q165.19375 136.06 165.19375 134.56Q165.19375 133.06 164.39999999999998 132.21625Q163.60625 131.3725 162.19375 131.3725H160.43124999999998V137.7475Z" fill="#6e87aa"/>
  <path d="M169.44374999999997 130.435V138.685H168.44374999999997V130.435Z" fill="#6e87aa"/>
  <path d="M180.11874999999995 130.435V138.685H179.16874999999996V133.4975L179.28124999999997 131.3225H179.26874999999995L176.55624999999995 138.685H175.70624999999995L172.99374999999995 131.3225H172.98124999999996L173.09374999999997 133.4975V138.685H172.14374999999995V130.435H173.68124999999995L175.49374999999995 135.4475L176.11874999999995 137.51H176.14374999999995L176.78124999999997 135.46L178.58124999999995 130.435Z" fill="#6e87aa"/>
  <path d="M182.81874999999997 138.685V130.435H188.60624999999996V131.3725H183.81874999999997V134.035H187.54374999999996V134.9725H183.81874999999997V137.7475H188.79374999999996V138.685Z" fill="#6e87aa"/>
  <path d="M197.26874999999995 130.435V138.685H196.03124999999997L192.58124999999995 133.16L191.70624999999995 131.61H191.69374999999997L191.74374999999998 132.86V138.685H190.79374999999996V130.435H192.03124999999997L195.46874999999997 135.935L196.35624999999996 137.5225H196.36874999999998L196.31874999999997 136.26V130.435Z" fill="#6e87aa"/>
  <path d="M202.61874999999998 130.31Q203.70624999999998 130.31 204.49374999999998 130.75375Q205.28124999999997 131.1975 205.80624999999998 132.06L204.96874999999997 132.71Q204.50624999999997 131.91 203.92499999999995 131.57875Q203.34374999999997 131.2475 202.51874999999998 131.2475Q201.85625 131.2475 201.42499999999998 131.435Q200.99374999999998 131.6225 200.79375 131.92875Q200.59374999999997 132.235 200.59374999999997 132.6225Q200.59374999999997 133.06 200.86874999999998 133.39125Q201.14374999999998 133.7225 201.96874999999997 133.91L203.75624999999997 134.31Q204.94374999999997 134.5725 205.41249999999997 135.10375Q205.88124999999997 135.635 205.88124999999997 136.4225Q205.88124999999997 137.1225 205.48749999999995 137.66625Q205.09374999999997 138.21 204.38124999999997 138.51Q203.66875 138.81 202.70624999999998 138.81Q201.80624999999998 138.81 201.12499999999997 138.56625Q200.44374999999997 138.3225 199.95624999999995 137.91Q199.46874999999997 137.4975 199.15624999999997 136.985L200.03124999999997 136.2725Q200.26874999999998 136.7475 200.64374999999998 137.11Q201.01874999999998 137.4725 201.54999999999998 137.6725Q202.08124999999998 137.8725 202.76874999999998 137.8725Q203.40624999999997 137.8725 203.87499999999997 137.71625Q204.34374999999997 137.56 204.59374999999997 137.25375Q204.84374999999997 136.9475 204.84374999999997 136.51Q204.84374999999997 136.11 204.58124999999995 135.79125Q204.31874999999997 135.4725 203.59374999999997 135.31L201.65624999999997 134.8725Q200.89374999999998 134.6975 200.42499999999998 134.39125Q199.95624999999998 134.085 199.75 133.66625Q199.54375 133.2475 199.54375 132.76Q199.54375 132.0975 199.91249999999997 131.54125Q200.28124999999997 130.985 200.97499999999997 130.6475Q201.66875 130.31 202.61874999999998 130.31Z" fill="#6e87aa"/>
  <path d="M208.98124999999996 130.435V138.685H207.98124999999996V130.435Z" fill="#6e87aa"/>
  <path d="M215.00624999999997 130.31Q216.18124999999995 130.31 217.03749999999997 130.82875Q217.89374999999995 131.3475 218.36249999999995 132.2975Q218.83124999999995 133.2475 218.83124999999995 134.56Q218.83124999999995 135.8725 218.36249999999995 136.8225Q217.89374999999995 137.7725 217.03749999999997 138.29125Q216.18124999999995 138.81 215.00624999999997 138.81Q213.83124999999995 138.81 212.97499999999997 138.29125Q212.11874999999995 137.7725 211.64999999999995 136.8225Q211.18124999999995 135.8725 211.18124999999995 134.56Q211.18124999999995 133.2475 211.64999999999995 132.2975Q212.11874999999995 131.3475 212.97499999999997 130.82875Q213.83124999999995 130.31 215.00624999999997 130.31ZM215.00624999999997 131.2475Q214.15624999999994 131.2475 213.53124999999994 131.64125Q212.90624999999994 132.035 212.56874999999997 132.77875Q212.23124999999996 133.5225 212.23124999999996 134.56Q212.23124999999996 135.5975 212.56874999999997 136.34125Q212.90624999999994 137.085 213.53124999999994 137.47875Q214.15624999999994 137.8725 215.00624999999997 137.8725Q215.86874999999995 137.8725 216.48749999999995 137.47875Q217.10624999999996 137.085 217.44374999999997 136.34125Q217.78124999999994 135.5975 217.78124999999994 134.56Q217.78124999999994 133.5225 217.44374999999997 132.77875Q217.10624999999996 132.035 216.48749999999995 131.64125Q215.86874999999995 131.2475 215.00624999999997 131.2475Z" fill="#6e87aa"/>
  <path d="M227.50624999999994 130.435V138.685H226.26874999999995L222.81874999999994 133.16L221.94374999999994 131.61H221.93124999999995L221.98124999999996 132.86V138.685H221.03124999999994V130.435H222.26874999999995L225.70624999999995 135.935L226.59374999999994 137.5225H226.60624999999996L226.55624999999995 136.26V130.435Z" fill="#6e87aa"/>
  <path d="M236.78124999999997 138.685H235.71874999999997L234.84374999999997 136.3975H231.10624999999996L230.23124999999996 138.685H229.18124999999995L232.39374999999995 130.435H233.58124999999995ZM231.46874999999997 135.46H234.48124999999996L232.96874999999997 131.3975Z" fill="#6e87aa"/>
  <path d="M246.43124999999995 130.435V138.685H245.48124999999996V133.4975L245.59374999999997 131.3225H245.58124999999995L242.86874999999995 138.685H242.01874999999995L239.30624999999995 131.3225H239.29374999999996L239.40624999999997 133.4975V138.685H238.45624999999995V130.435H239.99374999999995L241.80624999999995 135.4475L242.43124999999995 137.51H242.45624999999995L243.09374999999997 135.46L244.89374999999995 130.435Z" fill="#6e87aa"/>
  <path d="M249.13124999999997 138.685V130.435H254.91874999999996V131.3725H250.13124999999997V134.035H253.85624999999996V134.9725H250.13124999999997V137.7475H255.10624999999996V138.685Z" fill="#6e87aa"/>
  <path d="M263.58124999999995 130.435V138.685H262.34374999999994L258.89374999999995 133.16L258.01874999999995 131.61H258.00624999999997L258.05625 132.86V138.685H257.10625V130.435H258.34374999999994L261.78124999999994 135.935L262.66875 137.5225H262.68125L262.63124999999997 136.26V130.435Z" fill="#6e87aa"/>
  <path d="M272.08124999999995 130.435V131.3725H269.20624999999995V138.685H268.20624999999995V131.3725H265.33124999999995V130.435Z" fill="#6e87aa"/>
  <path d="M277.15625 130.31Q278.33125 130.31 279.1875 130.82875Q280.04375 131.3475 280.5125 132.2975Q280.98125 133.2475 280.98125 134.56Q280.98125 135.8725 280.5125 136.8225Q280.04375 137.7725 279.1875 138.29125Q278.33125 138.81 277.15625 138.81Q275.98125 138.81 275.125 138.29125Q274.26875 137.7725 273.8 136.8225Q273.33125 135.8725 273.33125 134.56Q273.33125 133.2475 273.8 132.2975Q274.26875 131.3475 275.125 130.82875Q275.98125 130.31 277.15625 130.31ZM277.15625 131.2475Q276.30625 131.2475 275.68125 131.64125Q275.05625 132.035 274.71875 132.77875Q274.38124999999997 133.5225 274.38124999999997 134.56Q274.38124999999997 135.5975 274.71875 136.34125Q275.05625 137.085 275.68125 137.47875Q276.30625 137.8725 277.15625 137.8725Q278.01875 137.8725 278.6375 137.47875Q279.25624999999997 137.085 279.59375 136.34125Q279.93125 135.5975 279.93125 134.56Q279.93125 133.5225 279.59375 132.77875Q279.25624999999997 132.035 278.6375 131.64125Q278.01875 131.2475 277.15625 131.2475Z" fill="#6e87aa"/>
  <path d="M287.44375 138.685V130.435H293.23125V131.3725H288.44375V134.035H292.16875V134.9725H288.44375V137.7475H293.41875V138.685Z" fill="#6e87aa"/>
  <path d="M299.68125000000003 138.685V130.435H305.46875V131.3725H300.68125000000003V134.035H304.40625V134.9725H300.68125000000003V137.7475H305.65625V138.685Z" fill="#6e87aa"/>
  <path d="M313.41875000000005 138.685H312.26875L310.03125000000006 135.285L307.78125000000006 138.685H306.61875000000003L309.50625 134.485L306.86875000000003 130.435H308.04375000000005L310.13125 133.6475L312.24375000000003 130.435H313.33125L310.65625000000006 134.435Z" fill="#6e87aa"/>
  <path d="M318.08125 130.435Q318.91875000000005 130.435 319.5375 130.74125Q320.15625 131.0475 320.50625 131.61Q320.85625000000005 132.1725 320.85625000000005 132.9475Q320.85625000000005 133.7225 320.50625 134.285Q320.15625 134.8475 319.5375 135.15375Q318.91875000000005 135.46 318.08125 135.46H316.16875000000005V138.685H315.16875000000005V130.435ZM317.93125000000003 134.5225Q318.90625 134.5225 319.35625000000005 134.11625Q319.80625000000003 133.71 319.80625000000003 132.9475Q319.80625000000003 132.1725 319.35625000000005 131.7725Q318.90625 131.3725 317.93125000000003 131.3725H316.16875000000005V134.5225Z" fill="#6e87aa"/>
  <path d="M322.79375000000005 138.685V130.435H328.58125V131.3725H323.79375000000005V134.035H327.51875V134.9725H323.79375000000005V137.7475H328.76875V138.685Z" fill="#6e87aa"/>
  <path d="M333.43125000000003 130.435Q335.36875000000003 130.435 336.475 131.50375Q337.58125000000007 132.5725 337.58125000000007 134.56Q337.58125000000007 136.5475 336.475 137.61625Q335.36875000000003 138.685 333.43125000000003 138.685H330.76875000000007V130.435ZM333.53125000000006 137.7475Q334.94375 137.7475 335.73750000000007 136.90375Q336.53125000000006 136.06 336.53125000000006 134.56Q336.53125000000006 133.06 335.73750000000007 132.21625Q334.94375 131.3725 333.53125000000006 131.3725H331.76875000000007V137.7475Z" fill="#6e87aa"/>
  <path d="M340.78125000000006 130.435V138.685H339.78125000000006V130.435Z" fill="#6e87aa"/>
  <path d="M350.13125 136.5725Q349.86875000000003 137.2725 349.38125 137.77875Q348.89375 138.285 348.2375 138.5475Q347.58125 138.81 346.80625000000003 138.81Q345.63125 138.81 344.77500000000003 138.29125Q343.91875000000005 137.7725 343.45000000000005 136.8225Q342.98125000000005 135.8725 342.98125000000005 134.56Q342.98125000000005 133.2475 343.45000000000005 132.2975Q343.91875000000005 131.3475 344.77500000000003 130.82875Q345.63125 130.31 346.78125 130.31Q347.58125 130.31 348.20625 130.52875Q348.83125 130.7475 349.275 131.17875Q349.71875 131.61 349.98125000000005 132.235L348.99375000000003 132.6975Q348.71875 131.985 348.20000000000005 131.61625Q347.68125000000003 131.2475 346.85625000000005 131.2475Q346.01875 131.2475 345.38125 131.64125Q344.74375000000003 132.035 344.38750000000005 132.77249999999998Q344.03125 133.51 344.03125 134.56Q344.03125 135.5975 344.36875 136.34125Q344.70625 137.085 345.33125 137.47875Q345.95625 137.8725 346.80625000000003 137.8725Q347.63125 137.8725 348.24375000000003 137.45375Q348.85625000000005 137.035 349.13125 136.1975ZM346.09375 138.635 346.61875 138.3225Q347.35625 138.56 347.66875 138.96625Q347.98125 139.3725 347.98125 139.9225Q347.98125 140.5225 347.55625 140.9475Q347.13125 141.3725 346.46875 141.3725Q346.08125 141.3725 345.7875 141.2725Q345.49375 141.1725 345.28125 141.01L345.51875 140.285Q345.69375 140.3975 345.88750000000005 140.485Q346.08125 140.5725 346.35625 140.5725Q346.70625 140.5725 346.93125 140.3475Q347.15625 140.1225 347.15625 139.6975Q347.15625 139.3725 346.91875 139.135Q346.68125 138.8975 346.09375 138.635Z" fill="#6e87aa"/>
  <path d="M358.63125 138.685H357.56875L356.69375 136.3975H352.95625L352.08125 138.685H351.03125L354.24375000000003 130.435H355.43125000000003ZM353.31875 135.46H356.33125L354.81875 131.3975ZM357.08125 127.7225Q357.04375 128.2725 356.875 128.6475Q356.70625 129.0225 356.4125 129.21Q356.11875000000003 129.3975 355.68125000000003 129.3975Q355.33125 129.3975 355.0875 129.26625Q354.84375 129.135 354.66875000000005 128.9725Q354.49375000000003 128.81 354.32500000000005 128.67875Q354.15625 128.5475 353.95625 128.5475Q353.68125000000003 128.5475 353.54375000000005 128.77875Q353.40625 129.01 353.34375 129.41H352.55625000000003Q352.61875000000003 128.585 352.96250000000003 128.16Q353.30625000000003 127.735 353.96875 127.735Q354.30625000000003 127.735 354.55 127.86625000000001Q354.79375 127.9975 354.975 128.16Q355.15625 128.3225 355.31875 128.45375Q355.48125 128.585 355.66875 128.585Q355.95625 128.585 356.09375 128.35375Q356.23125 128.1225 356.29375 127.7225Z" fill="#6e87aa"/>
  <path d="M363.63125 130.31Q364.80625000000003 130.31 365.6625 130.82875Q366.51875 131.3475 366.9875 132.2975Q367.45625 133.2475 367.45625 134.56Q367.45625 135.8725 366.9875 136.8225Q366.51875 137.7725 365.6625 138.29125Q364.80625000000003 138.81 363.63125 138.81Q362.45625 138.81 361.6 138.29125Q360.74375000000003 137.7725 360.27500000000003 136.8225Q359.80625000000003 135.8725 359.80625000000003 134.56Q359.80625000000003 133.2475 360.27500000000003 132.2975Q360.74375000000003 131.3475 361.6 130.82875Q362.45625 130.31 363.63125 130.31ZM363.63125 131.2475Q362.78125 131.2475 362.15625 131.64125Q361.53125 132.035 361.19375 132.77875Q360.85625 133.5225 360.85625 134.56Q360.85625 135.5975 361.19375 136.34125Q361.53125 137.085 362.15625 137.47875Q362.78125 137.8725 363.63125 137.8725Q364.49375000000003 137.8725 365.1125 137.47875Q365.73125 137.085 366.06875 136.34125Q366.40625 135.5975 366.40625 134.56Q366.40625 133.5225 366.06875 132.77875Q365.73125 132.035 365.1125 131.64125Q364.49375000000003 131.2475 363.63125 131.2475Z" fill="#6e87aa"/>

</svg>